<?xml version="1.0" encoding="utf-8"?>
<!-- Generator: Adobe Illustrator 25.0.0, SVG Export Plug-In . SVG Version: 6.00 Build 0)  -->
<svg version="1.1" id="Capa_1" xmlns="http://www.w3.org/2000/svg" xmlns:xlink="http://www.w3.org/1999/xlink" x="0px" y="0px"
	 viewBox="0 0 500 500" style="enable-background:new 0 0 500 500;" xml:space="preserve">
<style type="text/css">
	.st0{fill:#FFFFFF;}
</style>
<g>
	<path class="st0" d="M218.7,205.1c-0.6-25.3-2.9-31.8-2.9-31.8c-5-49.7-46.4-91.9-97.4-91.9c-54.3,0-98.4,44-98.4,98.4
		c0,54.3,44,98.4,98.4,98.4c11,0,21.5-1.8,31.3-5.1C144.1,368.2,67.6,420,67.6,420l9.9,4.6C197.3,358.9,220.2,264.3,218.7,205.1z"/>
	<path class="st0" d="M472.9,205.1c-0.6-25.3-2.9-31.8-2.9-31.8c-5-49.7-46.4-91.9-97.4-91.9c-54.3,0-98.4,44-98.4,98.4
		c0,54.3,44,98.4,98.4,98.4c11,0,21.5-1.8,31.3-5.1c-5.6,95.1-82.1,146.9-82.1,146.9l9.9,4.6C451.5,358.9,474.4,264.3,472.9,205.1z"
		/>
</g>
</svg>
